<svg xmlns="http://www.w3.org/2000/svg" width="1100" height="533" viewBox="0 0 1100 533" role="img"><rect width="100%" height="100%" fill="#FFFFFF"/><text x="48.0" y="50.0" fill="#27313A" font-family="Arial, sans-serif" font-size="24" font-weight="600" text-anchor="start">Thermochemistry — reactions by family</text><text x="48.0" y="78.0" fill="#66727C" font-family="Arial, sans-serif" font-size="13" font-weight="400" text-anchor="start">Common count scale preserves family volume; segment color shows verdict.</text><rect x="48.0" y="98.0" width="927.0" height="52.0" rx="7.0" fill="#F5F7F8" stroke="#D9DEE2"/><text x="66.0" y="130.0" fill="#27313A" font-family="Arial, sans-serif" font-size="14" font-weight="600" text-anchor="start">Largest unresolved family: ion (538/670 fail or unknown).</text><text x="48.0" y="208.0" fill="#27313A" font-family="Arial, sans-serif" font-size="14" font-weight="600" text-anchor="start">Electron</text><rect x="215.0" y="185.0" width="760.0" height="32.0" rx="3.0" fill="#F0F2F3" stroke="#D9DEE2"/><rect x="215.0" y="185.0" width="65.8" height="32.0" rx="0.0" fill="#2F6B9A" stroke="none"/><text x="247.9" y="207.0" fill="#FFFFFF" font-family="Arial, sans-serif" font-size="10" font-weight="600" text-anchor="middle">58</text><rect x="280.8" y="185.0" width="4.5" height="32.0" rx="0.0" fill="#C56A2D" stroke="none"/><rect x="285.3" y="185.0" width="82.8" height="32.0" rx="0.0" fill="#7A8793" stroke="none"/><text x="326.7" y="207.0" fill="#FFFFFF" font-family="Arial, sans-serif" font-size="10" font-weight="600" text-anchor="middle">73</text><text x="989.0" y="207.0" fill="#27313A" font-family="Arial, sans-serif" font-size="12" font-weight="600" text-anchor="start">n=135</text><text x="215.0" y="236.0" fill="#66727C" font-family="Arial, sans-serif" font-size="10" font-weight="400" text-anchor="start">pass=58  fail=4  unknown=73  not_applicable=0</text><text x="48.0" y="280.0" fill="#27313A" font-family="Arial, sans-serif" font-size="14" font-weight="600" text-anchor="start">Ion</text><rect x="215.0" y="257.0" width="760.0" height="32.0" rx="3.0" fill="#F0F2F3" stroke="#D9DEE2"/><rect x="215.0" y="257.0" width="149.7" height="32.0" rx="0.0" fill="#2F6B9A" stroke="none"/><text x="289.9" y="279.0" fill="#FFFFFF" font-family="Arial, sans-serif" font-size="10" font-weight="600" text-anchor="middle">132</text><rect x="364.7" y="257.0" width="610.3" height="32.0" rx="0.0" fill="#7A8793" stroke="none"/><text x="669.9" y="279.0" fill="#FFFFFF" font-family="Arial, sans-serif" font-size="10" font-weight="600" text-anchor="middle">538</text><text x="989.0" y="279.0" fill="#27313A" font-family="Arial, sans-serif" font-size="12" font-weight="600" text-anchor="start">n=670</text><text x="215.0" y="308.0" fill="#66727C" font-family="Arial, sans-serif" font-size="10" font-weight="400" text-anchor="start">pass=132  fail=0  unknown=538  not_applicable=0</text><text x="48.0" y="352.0" fill="#27313A" font-family="Arial, sans-serif" font-size="14" font-weight="600" text-anchor="start">Neutral</text><rect x="215.0" y="329.0" width="760.0" height="32.0" rx="3.0" fill="#F0F2F3" stroke="#D9DEE2"/><rect x="215.0" y="329.0" width="35.2" height="32.0" rx="0.0" fill="#2F6B9A" stroke="none"/><text x="232.6" y="351.0" fill="#FFFFFF" font-family="Arial, sans-serif" font-size="10" font-weight="600" text-anchor="middle">31</text><rect x="250.2" y="329.0" width="3.4" height="32.0" rx="0.0" fill="#C56A2D" stroke="none"/><rect x="253.6" y="329.0" width="73.7" height="32.0" rx="0.0" fill="#7A8793" stroke="none"/><text x="290.4" y="351.0" fill="#FFFFFF" font-family="Arial, sans-serif" font-size="10" font-weight="600" text-anchor="middle">65</text><text x="989.0" y="351.0" fill="#27313A" font-family="Arial, sans-serif" font-size="12" font-weight="600" text-anchor="start">n=99</text><text x="215.0" y="380.0" fill="#66727C" font-family="Arial, sans-serif" font-size="10" font-weight="400" text-anchor="start">pass=31  fail=3  unknown=65  not_applicable=0</text><text x="48.0" y="424.0" fill="#27313A" font-family="Arial, sans-serif" font-size="14" font-weight="600" text-anchor="start">Surface</text><rect x="215.0" y="401.0" width="760.0" height="32.0" rx="3.0" fill="#F0F2F3" stroke="#D9DEE2"/><rect x="215.0" y="401.0" width="2.3" height="32.0" rx="0.0" fill="#2F6B9A" stroke="none"/><text x="989.0" y="423.0" fill="#27313A" font-family="Arial, sans-serif" font-size="12" font-weight="600" text-anchor="start">n=2</text><text x="215.0" y="452.0" fill="#66727C" font-family="Arial, sans-serif" font-size="10" font-weight="400" text-anchor="start">pass=2  fail=0  unknown=0  not_applicable=0</text><rect x="215.0" y="494.0" width="13.0" height="13.0" rx="0.0" fill="#2F6B9A" stroke="#27313A"/><text x="234.0" y="505.0" fill="#27313A" font-family="Arial, sans-serif" font-size="11" font-weight="400" text-anchor="start">pass</text><rect x="360.0" y="494.0" width="13.0" height="13.0" rx="0.0" fill="#C56A2D" stroke="#27313A"/><text x="379.0" y="505.0" fill="#27313A" font-family="Arial, sans-serif" font-size="11" font-weight="400" text-anchor="start">fail</text><rect x="505.0" y="494.0" width="13.0" height="13.0" rx="0.0" fill="#7A8793" stroke="#27313A"/><text x="524.0" y="505.0" fill="#27313A" font-family="Arial, sans-serif" font-size="11" font-weight="400" text-anchor="start">unknown</text><rect x="650.0" y="494.0" width="13.0" height="13.0" rx="0.0" fill="#D7DCE0" stroke="#27313A"/><text x="669.0" y="505.0" fill="#27313A" font-family="Arial, sans-serif" font-size="11" font-weight="400" text-anchor="start">not_applicable</text></svg>