<svg xmlns="http://www.w3.org/2000/svg" width="1100" height="533" viewBox="0 0 1100 533" role="img"><rect width="100%" height="100%" fill="#FFFFFF"/><text x="48.0" y="50.0" fill="#27313A" font-family="Arial, sans-serif" font-size="24" font-weight="600" text-anchor="start">Kinetics — reactions by family</text><text x="48.0" y="78.0" fill="#66727C" font-family="Arial, sans-serif" font-size="13" font-weight="400" text-anchor="start">Common count scale preserves family volume; segment color shows verdict.</text><rect x="48.0" y="98.0" width="927.0" height="52.0" rx="7.0" fill="#F5F7F8" stroke="#D9DEE2"/><text x="66.0" y="130.0" fill="#27313A" font-family="Arial, sans-serif" font-size="14" font-weight="600" text-anchor="start">Largest unresolved family: ion (2949/3070 fail or unknown).</text><text x="48.0" y="208.0" fill="#27313A" font-family="Arial, sans-serif" font-size="14" font-weight="600" text-anchor="start">Electron</text><rect x="215.0" y="185.0" width="760.0" height="32.0" rx="3.0" fill="#F0F2F3" stroke="#D9DEE2"/><rect x="215.0" y="185.0" width="0.2" height="32.0" rx="0.0" fill="#2F6B9A" stroke="none"/><rect x="215.2" y="185.0" width="0.2" height="32.0" rx="0.0" fill="#C56A2D" stroke="none"/><rect x="215.5" y="185.0" width="77.2" height="32.0" rx="0.0" fill="#7A8793" stroke="none"/><text x="254.1" y="207.0" fill="#FFFFFF" font-family="Arial, sans-serif" font-size="10" font-weight="600" text-anchor="middle">312</text><text x="989.0" y="207.0" fill="#27313A" font-family="Arial, sans-serif" font-size="12" font-weight="600" text-anchor="start">n=314</text><text x="215.0" y="236.0" fill="#66727C" font-family="Arial, sans-serif" font-size="10" font-weight="400" text-anchor="start">pass=1  fail=1  unknown=312  not_applicable=0</text><text x="48.0" y="280.0" fill="#27313A" font-family="Arial, sans-serif" font-size="14" font-weight="600" text-anchor="start">Ion</text><rect x="215.0" y="257.0" width="760.0" height="32.0" rx="3.0" fill="#F0F2F3" stroke="#D9DEE2"/><rect x="215.0" y="257.0" width="30.0" height="32.0" rx="0.0" fill="#2F6B9A" stroke="none"/><rect x="245.0" y="257.0" width="0.5" height="32.0" rx="0.0" fill="#C56A2D" stroke="none"/><rect x="245.4" y="257.0" width="729.6" height="32.0" rx="0.0" fill="#7A8793" stroke="none"/><text x="610.2" y="279.0" fill="#FFFFFF" font-family="Arial, sans-serif" font-size="10" font-weight="600" text-anchor="middle">2947</text><text x="989.0" y="279.0" fill="#27313A" font-family="Arial, sans-serif" font-size="12" font-weight="600" text-anchor="start">n=3070</text><text x="215.0" y="308.0" fill="#66727C" font-family="Arial, sans-serif" font-size="10" font-weight="400" text-anchor="start">pass=121  fail=2  unknown=2947  not_applicable=0</text><text x="48.0" y="352.0" fill="#27313A" font-family="Arial, sans-serif" font-size="14" font-weight="600" text-anchor="start">Neutral</text><rect x="215.0" y="329.0" width="760.0" height="32.0" rx="3.0" fill="#F0F2F3" stroke="#D9DEE2"/><rect x="215.0" y="329.0" width="13.6" height="32.0" rx="0.0" fill="#2F6B9A" stroke="none"/><rect x="228.6" y="329.0" width="77.7" height="32.0" rx="0.0" fill="#7A8793" stroke="none"/><text x="267.5" y="351.0" fill="#FFFFFF" font-family="Arial, sans-serif" font-size="10" font-weight="600" text-anchor="middle">314</text><text x="989.0" y="351.0" fill="#27313A" font-family="Arial, sans-serif" font-size="12" font-weight="600" text-anchor="start">n=369</text><text x="215.0" y="380.0" fill="#66727C" font-family="Arial, sans-serif" font-size="10" font-weight="400" text-anchor="start">pass=55  fail=0  unknown=314  not_applicable=0</text><text x="48.0" y="424.0" fill="#27313A" font-family="Arial, sans-serif" font-size="14" font-weight="600" text-anchor="start">Surface</text><rect x="215.0" y="401.0" width="760.0" height="32.0" rx="3.0" fill="#F0F2F3" stroke="#D9DEE2"/><rect x="215.0" y="401.0" width="0.7" height="32.0" rx="0.0" fill="#7A8793" stroke="none"/><text x="989.0" y="423.0" fill="#27313A" font-family="Arial, sans-serif" font-size="12" font-weight="600" text-anchor="start">n=3</text><text x="215.0" y="452.0" fill="#66727C" font-family="Arial, sans-serif" font-size="10" font-weight="400" text-anchor="start">pass=0  fail=0  unknown=3  not_applicable=0</text><rect x="215.0" y="494.0" width="13.0" height="13.0" rx="0.0" fill="#2F6B9A" stroke="#27313A"/><text x="234.0" y="505.0" fill="#27313A" font-family="Arial, sans-serif" font-size="11" font-weight="400" text-anchor="start">pass</text><rect x="360.0" y="494.0" width="13.0" height="13.0" rx="0.0" fill="#C56A2D" stroke="#27313A"/><text x="379.0" y="505.0" fill="#27313A" font-family="Arial, sans-serif" font-size="11" font-weight="400" text-anchor="start">fail</text><rect x="505.0" y="494.0" width="13.0" height="13.0" rx="0.0" fill="#7A8793" stroke="#27313A"/><text x="524.0" y="505.0" fill="#27313A" font-family="Arial, sans-serif" font-size="11" font-weight="400" text-anchor="start">unknown</text><rect x="650.0" y="494.0" width="13.0" height="13.0" rx="0.0" fill="#D7DCE0" stroke="#27313A"/><text x="669.0" y="505.0" fill="#27313A" font-family="Arial, sans-serif" font-size="11" font-weight="400" text-anchor="start">not_applicable</text></svg>