<svg xmlns="http://www.w3.org/2000/svg" width="1480" height="982" viewBox="0 0 1480 982">
<defs><marker id="arrow" markerWidth="8" markerHeight="8" refX="7" refY="4" orient="auto"><path d="M0,0 L8,4 L0,8 z" fill="context-stroke"/></marker></defs>
<rect width="100%" height="100%" fill="#ffffff"/>
<text x="40" y="46" font-family="Arial,sans-serif" font-size="24" font-weight="700" fill="#111827">Species lineage: ar_cf4_fluorocarbon</text>
<text x="40" y="74" font-family="Arial,sans-serif" font-size="13" fill="#4b5563">nodes=14  edges=12  labels are available as hover tooltips</text>
<text x="150" y="108" text-anchor="middle" font-family="Arial,sans-serif" font-size="14" font-weight="700" fill="#374151">depth 0</text>
<line x1="150" y1="118" x2="150" y2="937" stroke="#e5e7eb" stroke-dasharray="4 5"/>
<text x="450" y="108" text-anchor="middle" font-family="Arial,sans-serif" font-size="14" font-weight="700" fill="#374151">depth 1</text>
<line x1="450" y1="118" x2="450" y2="937" stroke="#e5e7eb" stroke-dasharray="4 5"/>
<text x="750" y="108" text-anchor="middle" font-family="Arial,sans-serif" font-size="14" font-weight="700" fill="#374151">depth 2</text>
<line x1="750" y1="118" x2="750" y2="937" stroke="#e5e7eb" stroke-dasharray="4 5"/>
<text x="1050" y="108" text-anchor="middle" font-family="Arial,sans-serif" font-size="14" font-weight="700" fill="#374151">depth 3</text>
<line x1="1050" y1="118" x2="1050" y2="937" stroke="#e5e7eb" stroke-dasharray="4 5"/>
<path d="M 212 335.5 C 291.2 335.5, 308.8 187.33333333333334, 388 187.33333333333334" fill="none" stroke="#2563eb" stroke-width="1.6" opacity="0.62" marker-end="url(#arrow)"><title>e_Ar_ionization | e + Ar -&gt; 2 e + Ar+ | electron / ionization | depth 0</title></path>
<path d="M 212 716.5 C 291.2 716.5, 308.8 695.3333333333334, 388 695.3333333333334" fill="none" stroke="#2563eb" stroke-width="1.6" opacity="0.62" marker-end="url(#arrow)"><title>e_CF4_ionization_parent_effective | e + CF4 -&gt; 2 e + CF4+ | electron / ionization | depth 0</title></path>
<path d="M 212 716.5 C 291.2 716.5, 308.8 441.33333333333337, 388 441.33333333333337" fill="none" stroke="#2563eb" stroke-width="1.6" opacity="0.62" marker-end="url(#arrow)"><title>e_CF4_dissociation_CF3_F | e + CF4 -&gt; e + CF3 + F | electron / dissociation | depth 0</title></path>
<path d="M 212 716.5 C 291.2 716.5, 308.8 780.0, 388 780.0" fill="none" stroke="#2563eb" stroke-width="1.6" opacity="0.62" marker-end="url(#arrow)"><title>e_CF4_dissociation_CF3_F | e + CF4 -&gt; e + CF3 + F | electron / dissociation | depth 0</title></path>
<path d="M 212 716.5 C 291.2 716.5, 308.8 272.0, 388 272.0" fill="none" stroke="#2563eb" stroke-width="1.6" opacity="0.62" marker-end="url(#arrow)"><title>e_CF4_dissociation_CF2_2F | e + CF4 -&gt; e + CF2 + 2 F | electron / dissociation | depth 0</title></path>
<path d="M 212 716.5 C 291.2 716.5, 308.8 864.6666666666667, 388 864.6666666666667" fill="none" stroke="#2563eb" stroke-width="1.6" opacity="0.62" marker-end="url(#arrow)"><title>e_CF4_attachment_Fm | e + CF4 -&gt; CF3 + F- | electron / attachment | depth 0</title></path>
<path d="M 212 716.5 C 291.2 716.5, 308.8 610.6666666666667, 388 610.6666666666667" fill="none" stroke="#2563eb" stroke-width="1.6" opacity="0.62" marker-end="url(#arrow)"><title>e_CF4_attachment_CF3m | e + CF4 -&gt; CF3- + F | electron / attachment | depth 0</title></path>
<path d="M 212 716.5 C 291.2 716.5, 308.8 526.0, 388 526.0" fill="none" stroke="#2563eb" stroke-width="1.6" opacity="0.62" marker-end="url(#arrow)"><title>e_CF4_dissociative_ionization_CF3p | e + CF4 -&gt; 2 e + CF3+ + F | electron / dissociative_ionization | depth 0</title></path>
<path d="M 212 716.5 C 291.2 716.5, 308.8 356.6666666666667, 388 356.6666666666667" fill="none" stroke="#2563eb" stroke-width="1.6" opacity="0.62" marker-end="url(#arrow)"><title>e_CF4_dissociative_ionization_CF2p | e + CF4 -&gt; 2 e + CF2+ + 2 F | electron / dissociative_ionization | depth 0</title></path>
<path d="M 512 272.0 C 591.2 272.0, 608.8 335.5, 688 335.5" fill="none" stroke="#2563eb" stroke-width="1.6" opacity="0.62" marker-end="url(#arrow)"><title>e_CF2_dissociation_CF_F | e + CF2 -&gt; e + CF + F | electron / dissociation | depth 1</title></path>
<path d="M 512 780.0 C 591.2 780.0, 608.8 716.5, 688 716.5" fill="none" stroke="#2563eb" stroke-width="1.6" opacity="0.62" marker-end="url(#arrow)"><title>e_F_ionization | e + F -&gt; 2 e + F+ | electron / ionization | depth 1</title></path>
<path d="M 812 335.5 C 891.2 335.5, 908.8 526.0, 988 526.0" fill="none" stroke="#2563eb" stroke-width="1.6" opacity="0.62" marker-end="url(#arrow)"><title>e_CF_dissociation_C_F | e + CF -&gt; e + C + F | electron / dissociation | depth 2</title></path>
<g><title>Ar</title><rect x="88" y="313.5" width="124" height="44" rx="9" fill="#ecfdf5" stroke="#047857" stroke-width="1.5"/><text x="150" y="340.5" text-anchor="middle" font-family="Arial,sans-serif" font-size="14" font-weight="600" fill="#111827">Ar</text></g>
<g><title>CF4</title><rect x="88" y="694.5" width="124" height="44" rx="9" fill="#ecfdf5" stroke="#047857" stroke-width="1.5"/><text x="150" y="721.5" text-anchor="middle" font-family="Arial,sans-serif" font-size="14" font-weight="600" fill="#111827">CF4</text></g>
<g><title>Ar+</title><rect x="388" y="165.33333333333334" width="124" height="44" rx="9" fill="#fee2e2" stroke="#b91c1c" stroke-width="1.5"/><text x="450" y="192.33333333333334" text-anchor="middle" font-family="Arial,sans-serif" font-size="14" font-weight="600" fill="#111827">Ar+</text></g>
<g><title>CF2</title><rect x="388" y="250.0" width="124" height="44" rx="9" fill="#ecfdf5" stroke="#047857" stroke-width="1.5"/><text x="450" y="277.0" text-anchor="middle" font-family="Arial,sans-serif" font-size="14" font-weight="600" fill="#111827">CF2</text></g>
<g><title>CF2+</title><rect x="388" y="334.6666666666667" width="124" height="44" rx="9" fill="#fee2e2" stroke="#b91c1c" stroke-width="1.5"/><text x="450" y="361.6666666666667" text-anchor="middle" font-family="Arial,sans-serif" font-size="14" font-weight="600" fill="#111827">CF2+</text></g>
<g><title>CF3</title><rect x="388" y="419.33333333333337" width="124" height="44" rx="9" fill="#ecfdf5" stroke="#047857" stroke-width="1.5"/><text x="450" y="446.33333333333337" text-anchor="middle" font-family="Arial,sans-serif" font-size="14" font-weight="600" fill="#111827">CF3</text></g>
<g><title>CF3+</title><rect x="388" y="504.0" width="124" height="44" rx="9" fill="#fee2e2" stroke="#b91c1c" stroke-width="1.5"/><text x="450" y="531.0" text-anchor="middle" font-family="Arial,sans-serif" font-size="14" font-weight="600" fill="#111827">CF3+</text></g>
<g><title>CF3-</title><rect x="388" y="588.6666666666667" width="124" height="44" rx="9" fill="#dbeafe" stroke="#1d4ed8" stroke-width="1.5"/><text x="450" y="615.6666666666667" text-anchor="middle" font-family="Arial,sans-serif" font-size="14" font-weight="600" fill="#111827">CF3-</text></g>
<g><title>CF4+</title><rect x="388" y="673.3333333333334" width="124" height="44" rx="9" fill="#fee2e2" stroke="#b91c1c" stroke-width="1.5"/><text x="450" y="700.3333333333334" text-anchor="middle" font-family="Arial,sans-serif" font-size="14" font-weight="600" fill="#111827">CF4+</text></g>
<g><title>F</title><rect x="388" y="758.0" width="124" height="44" rx="9" fill="#ecfdf5" stroke="#047857" stroke-width="1.5"/><text x="450" y="785.0" text-anchor="middle" font-family="Arial,sans-serif" font-size="14" font-weight="600" fill="#111827">F</text></g>
<g><title>F-</title><rect x="388" y="842.6666666666667" width="124" height="44" rx="9" fill="#dbeafe" stroke="#1d4ed8" stroke-width="1.5"/><text x="450" y="869.6666666666667" text-anchor="middle" font-family="Arial,sans-serif" font-size="14" font-weight="600" fill="#111827">F-</text></g>
<g><title>CF</title><rect x="688" y="313.5" width="124" height="44" rx="9" fill="#ecfdf5" stroke="#047857" stroke-width="1.5"/><text x="750" y="340.5" text-anchor="middle" font-family="Arial,sans-serif" font-size="14" font-weight="600" fill="#111827">CF</text></g>
<g><title>F+</title><rect x="688" y="694.5" width="124" height="44" rx="9" fill="#fee2e2" stroke="#b91c1c" stroke-width="1.5"/><text x="750" y="721.5" text-anchor="middle" font-family="Arial,sans-serif" font-size="14" font-weight="600" fill="#111827">F+</text></g>
<g><title>C</title><rect x="988" y="504.0" width="124" height="44" rx="9" fill="#ecfdf5" stroke="#047857" stroke-width="1.5"/><text x="1050" y="531.0" text-anchor="middle" font-family="Arial,sans-serif" font-size="14" font-weight="600" fill="#111827">C</text></g>
<line x1="40" y1="960" x2="62" y2="960" stroke="#2563eb" stroke-width="3"/><text x="67" y="965" font-family="Arial,sans-serif" font-size="11" fill="#374151">electron</text>
<line x1="195" y1="960" x2="217" y2="960" stroke="#dc2626" stroke-width="3"/><text x="222" y="965" font-family="Arial,sans-serif" font-size="11" fill="#374151">ion_neutral</text>
<line x1="350" y1="960" x2="372" y2="960" stroke="#059669" stroke-width="3"/><text x="377" y="965" font-family="Arial,sans-serif" font-size="11" fill="#374151">neutral_neutral</text>
<line x1="505" y1="960" x2="527" y2="960" stroke="#7c3aed" stroke-width="3"/><text x="532" y="965" font-family="Arial,sans-serif" font-size="11" fill="#374151">ion_ion</text>
<line x1="660" y1="960" x2="682" y2="960" stroke="#d97706" stroke-width="3"/><text x="687" y="965" font-family="Arial,sans-serif" font-size="11" fill="#374151">electron_ion</text>
</svg>